<mxfile host="Electron" modified="2024-03-15T14:58:17.833Z" agent="Mozilla/5.0 (Windows NT 10.0; Win64; x64) AppleWebKit/537.36 (KHTML, like Gecko) draw.io/22.1.2 Chrome/114.0.5735.289 Electron/25.9.4 Safari/537.36" etag="594Uxzpg0bRqlsSaRLtE" version="22.1.2" type="device">
  <diagram name="Endpoint: Connect" id="l-hCPUc-gzx_Krc53-If">
    <mxGraphModel dx="1098" dy="699" grid="1" gridSize="10" guides="1" tooltips="1" connect="1" arrows="1" fold="1" page="1" pageScale="1" pageWidth="1169" pageHeight="827" math="0" shadow="0">
      <root>
        <mxCell id="0" />
        <mxCell id="1" parent="0" />
        <UserObject label="&lt;font style=&quot;font-size: 11px;&quot;&gt;Availability zone&lt;/font&gt;" link="https://docs.aws.amazon.com/AWSEC2/latest/UserGuide/using-regions-availability-zones.html" linkTarget="_blank" tooltip="Availability Zone: A location within a region." id="uarFvXQqQTiC-nKyYjdN-1">
          <mxCell style="sketch=1;outlineConnect=0;gradientColor=none;html=1;whiteSpace=wrap;fontSize=13;fontStyle=0;shape=mxgraph.aws4.group;grIcon=mxgraph.aws4.group_availability_zone;strokeColor=#545B64;fillColor=none;verticalAlign=top;align=left;spacingLeft=30;fontColor=#545B64;dashed=1;rotation=0;fontFamily=Roboto;fontSource=https%3A%2F%2Ffonts.googleapis.com%2Fcss%3Ffamily%3DRoboto;curveFitting=1;jiggle=2;" parent="1" vertex="1">
            <mxGeometry x="431" y="195" width="335" height="335" as="geometry" />
          </mxCell>
        </UserObject>
        <UserObject label="&lt;font color=&quot;#8c4fff&quot;&gt;VPC&lt;/font&gt;" link="https://docs.aws.amazon.com/vpc/latest/userguide/what-is-amazon-vpc.html" linkTarget="_blank" tooltip="VPC: Virtual Private Cloud" id="uarFvXQqQTiC-nKyYjdN-2">
          <mxCell style="points=[[0,0],[0.25,0],[0.5,0],[0.75,0],[1,0],[1,0.25],[1,0.5],[1,0.75],[1,1],[0.75,1],[0.5,1],[0.25,1],[0,1],[0,0.75],[0,0.5],[0,0.25]];outlineConnect=0;gradientColor=none;html=1;whiteSpace=wrap;fontSize=12;fontStyle=0;container=1;pointerEvents=0;collapsible=0;recursiveResize=0;shape=mxgraph.aws4.group;grIcon=mxgraph.aws4.group_vpc2;strokeColor=#8C4FFF;fillColor=none;verticalAlign=top;align=left;spacingLeft=30;fontColor=#AAB7B8;dashed=0;rotation=0;sketch=1;curveFitting=1;jiggle=2;" parent="1" vertex="1">
            <mxGeometry x="471" y="233" width="260" height="260" as="geometry" />
          </mxCell>
        </UserObject>
        <UserObject label="&lt;font color=&quot;#00a4a6&quot;&gt;Private subnet&lt;/font&gt;" tooltip="Private subnet" link="https://docs.aws.amazon.com/vpc/latest/userguide/configure-subnets.html" linkTarget="_blank" id="uarFvXQqQTiC-nKyYjdN-21">
          <mxCell style="points=[[0,0],[0.25,0],[0.5,0],[0.75,0],[1,0],[1,0.25],[1,0.5],[1,0.75],[1,1],[0.75,1],[0.5,1],[0.25,1],[0,1],[0,0.75],[0,0.5],[0,0.25]];outlineConnect=0;gradientColor=none;html=1;whiteSpace=wrap;fontSize=12;fontStyle=0;container=1;pointerEvents=0;collapsible=0;recursiveResize=0;shape=mxgraph.aws4.group;grIcon=mxgraph.aws4.group_security_group;grStroke=0;strokeColor=#00A4A6;fillColor=#E6F6F7;verticalAlign=top;align=left;spacingLeft=30;fontColor=#147EBA;dashed=0;shadow=1;rotation=0;" parent="uarFvXQqQTiC-nKyYjdN-2" vertex="1">
            <mxGeometry x="34.5" y="36" width="200" height="200" as="geometry" />
          </mxCell>
        </UserObject>
        <UserObject label="" tooltip="EC2 (Elastic Compute Cloud) Connect Endpoint Service" link="https://docs.aws.amazon.com/AWSEC2/latest/UserGuide/connect-with-ec2-instance-connect-endpoint.html" id="uarFvXQqQTiC-nKyYjdN-22">
          <mxCell style="outlineConnect=0;fontColor=#232F3E;gradientColor=none;fillColor=#8C4FFF;strokeColor=none;dashed=0;verticalLabelPosition=bottom;verticalAlign=top;align=center;html=1;fontSize=12;fontStyle=0;aspect=fixed;pointerEvents=1;shape=mxgraph.aws4.endpoint;rotation=0;shadow=0;" parent="uarFvXQqQTiC-nKyYjdN-21" vertex="1">
            <mxGeometry x="146.5" y="123" width="41" height="41" as="geometry" />
          </mxCell>
        </UserObject>
        <UserObject label="Region" link="https://docs.aws.amazon.com/AWSEC2/latest/UserGuide/using-regions-availability-zones.html" linkTarget="_blank" tooltip="Region" id="uarFvXQqQTiC-nKyYjdN-7">
          <mxCell style="html=1;verticalLabelPosition=middle;align=left;labelBackgroundColor=#ffffff;verticalAlign=middle;strokeWidth=2;strokeColor=#147EBA;shadow=0;dashed=0;shape=mxgraph.ios7.icons.flag;fontFamily=Roboto;fontSource=https%3A%2F%2Ffonts.googleapis.com%2Fcss%3Ffamily%3DRoboto;fontSize=13;labelPosition=right;spacingRight=0;spacingLeft=5;fontColor=#147EBA;" parent="1" vertex="1">
            <mxGeometry x="355" y="97" width="30" height="30" as="geometry" />
          </mxCell>
        </UserObject>
        <mxCell id="uarFvXQqQTiC-nKyYjdN-8" value="" style="endArrow=none;dashed=1;html=1;rounded=0;strokeColor=#147EBA;" parent="1" edge="1">
          <mxGeometry width="50" height="50" relative="1" as="geometry">
            <mxPoint x="341" y="64" as="sourcePoint" />
            <mxPoint x="341" y="584" as="targetPoint" />
          </mxGeometry>
        </mxCell>
        <UserObject label="" tooltip="An Amazon S3 (Simple Storage Service) bucket." link="https://docs.aws.amazon.com/AmazonS3/latest/userguide/Welcome.html" linkTarget="_blank" id="uarFvXQqQTiC-nKyYjdN-9">
          <mxCell style="sketch=0;points=[[0,0,0],[0.25,0,0],[0.5,0,0],[0.75,0,0],[1,0,0],[0,1,0],[0.25,1,0],[0.5,1,0],[0.75,1,0],[1,1,0],[0,0.25,0],[0,0.5,0],[0,0.75,0],[1,0.25,0],[1,0.5,0],[1,0.75,0]];outlineConnect=0;fontColor=#232F3E;fillColor=#000000;strokeColor=#ffffff;dashed=0;verticalLabelPosition=bottom;verticalAlign=top;align=center;html=1;fontSize=12;fontStyle=0;aspect=fixed;shape=mxgraph.aws4.resourceIcon;resIcon=mxgraph.aws4.s3;opacity=80;rotation=0;" parent="1" vertex="1">
            <mxGeometry x="355.005" y="315.5" width="39" height="39" as="geometry" />
          </mxCell>
        </UserObject>
        <mxCell id="uarFvXQqQTiC-nKyYjdN-11" value="" style="endArrow=none;dashed=1;html=1;rounded=0;strokeColor=#147EBA;" parent="1" edge="1">
          <mxGeometry width="50" height="50" relative="1" as="geometry">
            <mxPoint x="818" y="92" as="sourcePoint" />
            <mxPoint x="819" y="537" as="targetPoint" />
          </mxGeometry>
        </mxCell>
        <mxCell id="uarFvXQqQTiC-nKyYjdN-35" style="edgeStyle=orthogonalEdgeStyle;rounded=0;orthogonalLoop=1;jettySize=auto;html=1;endArrow=blockThin;endFill=1;" parent="1" source="uarFvXQqQTiC-nKyYjdN-5" edge="1">
          <mxGeometry relative="1" as="geometry">
            <mxPoint x="554" y="335" as="targetPoint" />
          </mxGeometry>
        </mxCell>
        <UserObject label="&lt;font style=&quot;font-size: 10px;&quot; face=&quot;Roboto&quot;&gt;EC2&lt;/font&gt;" tooltip="Amazon Elastic Cloud Compute (EC2)" link="https://docs.aws.amazon.com/AWSEC2/latest/UserGuide/concepts.html" linkTarget="_blank" id="uarFvXQqQTiC-nKyYjdN-5">
          <mxCell style="sketch=0;outlineConnect=0;fontColor=#ED7100;gradientColor=none;fillColor=#ED7100;strokeColor=none;dashed=0;verticalLabelPosition=middle;verticalAlign=middle;align=center;html=1;fontSize=12;fontStyle=0;aspect=fixed;pointerEvents=1;shape=mxgraph.aws4.instance2;rotation=0;labelPosition=center;" parent="1" vertex="1">
            <mxGeometry x="587" y="317.5" width="35" height="35" as="geometry" />
          </mxCell>
        </UserObject>
        <mxCell id="uarFvXQqQTiC-nKyYjdN-31" style="edgeStyle=orthogonalEdgeStyle;rounded=0;orthogonalLoop=1;jettySize=auto;html=1;endArrow=blockThin;endFill=1;" parent="1" source="uarFvXQqQTiC-nKyYjdN-28" target="uarFvXQqQTiC-nKyYjdN-29" edge="1">
          <mxGeometry relative="1" as="geometry" />
        </mxCell>
        <mxCell id="uarFvXQqQTiC-nKyYjdN-28" value="" style="points=[[0.13,0.02,0],[0.5,0,0],[0.87,0.02,0],[0.885,0.4,0],[0.985,0.985,0],[0.5,1,0],[0.015,0.985,0],[0.115,0.4,0]];verticalLabelPosition=bottom;sketch=0;html=1;verticalAlign=top;aspect=fixed;align=center;pointerEvents=1;shape=mxgraph.cisco19.secure_endpoints;fillColor=#282828;strokeColor=none;" parent="1" vertex="1">
          <mxGeometry x="967" y="395" width="50" height="35" as="geometry" />
        </mxCell>
        <mxCell id="uarFvXQqQTiC-nKyYjdN-32" style="edgeStyle=orthogonalEdgeStyle;rounded=0;orthogonalLoop=1;jettySize=auto;html=1;endArrow=blockThin;endFill=1;" parent="1" source="uarFvXQqQTiC-nKyYjdN-29" target="uarFvXQqQTiC-nKyYjdN-22" edge="1">
          <mxGeometry relative="1" as="geometry" />
        </mxCell>
        <UserObject label="" tooltip="A dedicated internet protocol via a virtual private network service." id="uarFvXQqQTiC-nKyYjdN-29">
          <mxCell style="image;aspect=fixed;html=1;points=[];align=center;fontSize=12;image=img/lib/azure2/networking/Reserved_IP_Addresses_Classic.svg;rotation=0;" parent="1" vertex="1">
            <mxGeometry x="853" y="398.75" width="34" height="27.5" as="geometry" />
          </mxCell>
        </UserObject>
        <UserObject label="" tooltip="PEM (Privacy Enhanced Mail) Key" link="https://docs.aws.amazon.com/AWSEC2/latest/UserGuide/ec2-key-pairs.html" linkTarget="_blank" id="uarFvXQqQTiC-nKyYjdN-30">
          <mxCell style="verticalLabelPosition=bottom;html=1;verticalAlign=top;align=center;strokeColor=none;fillColor=#282828;shape=mxgraph.azure.access_control;rotation=0;" parent="1" vertex="1">
            <mxGeometry x="880" y="418.25" width="35" height="35" as="geometry" />
          </mxCell>
        </UserObject>
        <mxCell id="uarFvXQqQTiC-nKyYjdN-39" style="edgeStyle=orthogonalEdgeStyle;rounded=0;orthogonalLoop=1;jettySize=auto;html=1;endArrow=blockThin;endFill=1;" parent="1" source="uarFvXQqQTiC-nKyYjdN-37" target="uarFvXQqQTiC-nKyYjdN-5" edge="1">
          <mxGeometry relative="1" as="geometry" />
        </mxCell>
        <UserObject label="" tooltip="EC2 (Elastic Compute Cloud) Instance Connect Endpoint Interface" link="https://docs.aws.amazon.com/AWSEC2/latest/UserGuide/connect-with-ec2-instance-connect-endpoint.html" id="uarFvXQqQTiC-nKyYjdN-37">
          <mxCell style="sketch=0;outlineConnect=0;fontColor=#232F3E;gradientColor=none;fillColor=#8C4FFF;strokeColor=none;dashed=0;verticalLabelPosition=bottom;verticalAlign=top;align=center;html=1;fontSize=12;fontStyle=0;aspect=fixed;pointerEvents=1;shape=mxgraph.aws4.elastic_network_interface;rotation=0;" parent="1" vertex="1">
            <mxGeometry x="584" y="392" width="41" height="41" as="geometry" />
          </mxCell>
        </UserObject>
        <mxCell id="uarFvXQqQTiC-nKyYjdN-38" style="edgeStyle=orthogonalEdgeStyle;rounded=0;orthogonalLoop=1;jettySize=auto;html=1;endArrow=blockThin;endFill=1;" parent="1" source="uarFvXQqQTiC-nKyYjdN-22" target="uarFvXQqQTiC-nKyYjdN-37" edge="1">
          <mxGeometry relative="1" as="geometry" />
        </mxCell>
        <UserObject label="" link="https://docs.aws.amazon.com/vpc/latest/privatelink/gateway-endpoints.html" tooltip="Gateway Endpoint" id="uarFvXQqQTiC-nKyYjdN-40">
          <mxCell style="sketch=0;outlineConnect=0;fontColor=#232F3E;gradientColor=none;fillColor=#E7157B;strokeColor=none;dashed=0;verticalLabelPosition=bottom;verticalAlign=top;align=center;html=1;fontSize=12;fontStyle=0;aspect=fixed;pointerEvents=1;shape=mxgraph.aws4.endpoint;rotation=0;" parent="1" vertex="1">
            <mxGeometry x="513" y="314.5" width="41" height="41" as="geometry" />
          </mxCell>
        </UserObject>
        <mxCell id="uarFvXQqQTiC-nKyYjdN-41" style="edgeStyle=orthogonalEdgeStyle;rounded=0;orthogonalLoop=1;jettySize=auto;html=1;entryX=1;entryY=0.5;entryDx=0;entryDy=0;entryPerimeter=0;" parent="1" source="uarFvXQqQTiC-nKyYjdN-40" target="uarFvXQqQTiC-nKyYjdN-9" edge="1">
          <mxGeometry relative="1" as="geometry" />
        </mxCell>
        <UserObject label="With security groups." link="https://docs.aws.amazon.com/vpc/latest/userguide/vpc-security-groups.html" id="uarFvXQqQTiC-nKyYjdN-43">
          <mxCell style="text;html=1;strokeColor=none;fillColor=none;align=center;verticalAlign=middle;whiteSpace=wrap;rounded=0;fontFamily=Roboto;fontSize=11;fontStyle=1" parent="1" vertex="1">
            <mxGeometry x="480" y="453.25" width="80" height="30" as="geometry" />
          </mxCell>
        </UserObject>
      </root>
    </mxGraphModel>
  </diagram>
</mxfile>
